<?xml version="1.0" encoding="UTF-8" standalone="no"?>
<!DOCTYPE svg PUBLIC "-//W3C//DTD SVG 1.1//EN" "http://www.w3.org/Graphics/SVG/1.1/DTD/svg11.dtd">
<svg width="100%" height="100%" viewBox="0 0 76 74" version="1.1" xmlns="http://www.w3.org/2000/svg" xmlns:xlink="http://www.w3.org/1999/xlink" xml:space="preserve" xmlns:serif="http://www.serif.com/" style="fill-rule:evenodd;clip-rule:evenodd;stroke-linejoin:round;stroke-miterlimit:2;">
    <g transform="matrix(1,0,0,1,-25694,-11622)">
        <g transform="matrix(0.701184,0,0,0.686918,23946,6475.34)">
            <g id="icon-grid" transform="matrix(1.42616,0,0,1.45578,2479.76,7597.27)">
                <path d="M13.232,-18.018L80.811,-18.018C82.959,-18.018 84.277,-19.287 84.277,-21.289C84.277,-23.34 82.959,-24.561 80.811,-24.561L13.232,-24.561C11.084,-24.561 9.766,-23.34 9.766,-21.289C9.766,-19.287 11.084,-18.018 13.232,-18.018ZM13.232,-45.801L80.811,-45.801C82.959,-45.801 84.277,-47.07 84.277,-49.072C84.277,-51.123 82.959,-52.344 80.811,-52.344L13.232,-52.344C11.084,-52.344 9.766,-51.123 9.766,-49.072C9.766,-47.07 11.084,-45.801 13.232,-45.801ZM61.328,1.123C63.33,1.123 64.6,-0.195 64.6,-2.344L64.6,-68.164C64.6,-70.313 63.33,-71.631 61.328,-71.631C59.228,-71.631 58.008,-70.313 58.008,-68.164L58.008,-2.344C58.008,-0.195 59.228,1.123 61.328,1.123ZM32.617,1.123C34.619,1.123 35.889,-0.195 35.889,-2.344L35.889,-68.164C35.889,-70.313 34.619,-71.631 32.617,-71.631C30.566,-71.631 29.346,-70.313 29.346,-68.164L29.346,-2.344C29.346,-0.195 30.566,1.123 32.617,1.123Z" style="fill-rule:nonzero;"/>
            </g>
        </g>
    </g>
</svg>
