<?xml version="1.0" encoding="UTF-8" standalone="no"?>
<!DOCTYPE svg PUBLIC "-//W3C//DTD SVG 1.1//EN" "http://www.w3.org/Graphics/SVG/1.1/DTD/svg11.dtd">
<svg width="100%" height="100%" viewBox="0 0 80 80" version="1.1" xmlns="http://www.w3.org/2000/svg" xmlns:xlink="http://www.w3.org/1999/xlink" xml:space="preserve" xmlns:serif="http://www.serif.com/" style="fill-rule:evenodd;clip-rule:evenodd;stroke-linejoin:round;stroke-miterlimit:2;">
    <g transform="matrix(1,0,0,1,-24726,-11623)">
        <g transform="matrix(0.701184,0,0,0.686918,23946,6475.34)">
            <g transform="matrix(1.42616,0,0,1.45578,-34150.9,-9426.66)">
                <g id="icon-cancel">
                    <path d="M24765.6,11702.3C24744.1,11702.3 24726.2,11684.4 24726.2,11662.8C24726.2,11641.3 24744.1,11623.4 24765.6,11623.4C24787.1,11623.4 24805.1,11641.3 24805.1,11662.8C24805.1,11684.4 24787.1,11702.3 24765.6,11702.3ZM24752.8,11679.4C24753.8,11679.4 24754.7,11679 24755.3,11678.3L24765.6,11668L24775.9,11678.3C24776.5,11679 24777.5,11679.4 24778.4,11679.4C24780.5,11679.4 24782.1,11677.7 24782.1,11675.7C24782.1,11674.7 24781.8,11673.8 24781,11673.2L24770.7,11662.9L24781.1,11652.5C24781.9,11651.8 24782.2,11651 24782.2,11650C24782.2,11648 24780.5,11646.4 24778.5,11646.4C24777.6,11646.4 24776.8,11646.8 24776.1,11647.5L24765.6,11657.9L24755.2,11647.5C24754.6,11646.9 24753.8,11646.5 24752.8,11646.5C24750.8,11646.5 24749.2,11648.1 24749.2,11650.1C24749.2,11651 24749.6,11651.9 24750.2,11652.6L24760.5,11662.9L24750.2,11673.2C24749.6,11673.9 24749.2,11674.8 24749.2,11675.7C24749.2,11677.7 24750.8,11679.4 24752.8,11679.4Z" style="fill-rule:nonzero;"/>
                </g>
            </g>
        </g>
    </g>
</svg>
