<?xml version="1.0" encoding="UTF-8" standalone="no"?>
<!DOCTYPE svg PUBLIC "-//W3C//DTD SVG 1.1//EN" "http://www.w3.org/Graphics/SVG/1.1/DTD/svg11.dtd">
<svg width="100%" height="100%" viewBox="0 0 80 79" version="1.1" xmlns="http://www.w3.org/2000/svg" xmlns:xlink="http://www.w3.org/1999/xlink" xml:space="preserve" xmlns:serif="http://www.serif.com/" style="fill-rule:evenodd;clip-rule:evenodd;stroke-linejoin:round;stroke-miterlimit:2;">
    <g transform="matrix(1,0,0,1,-24346,-11782)">
        <g transform="matrix(0.701184,0,0,0.686918,23946,6475.34)">
            <g transform="matrix(1.42616,0,0,1.45578,-36227.4,-9338.4)">
                <g id="icon-pause-solid">
                    <path d="M25842,11800.3C25820.5,11800.3 25802.5,11782.4 25802.5,11760.9C25802.5,11739.4 25820.4,11721.5 25841.9,11721.5C25863.4,11721.5 25881.4,11739.4 25881.4,11760.9C25881.4,11782.4 25863.5,11800.3 25842,11800.3ZM25830.7,11776.5L25834.5,11776.5C25836.6,11776.5 25837.5,11775.4 25837.5,11773.8L25837.5,11748C25837.5,11746.3 25836.6,11745.3 25834.5,11745.3L25830.7,11745.3C25828.6,11745.3 25827.6,11746.3 25827.6,11748L25827.6,11773.8C25827.6,11775.4 25828.6,11776.5 25830.7,11776.5ZM25849.5,11776.5L25853.4,11776.5C25855.4,11776.5 25856.3,11775.4 25856.3,11773.8L25856.3,11748C25856.3,11746.3 25855.4,11745.3 25853.4,11745.3L25849.5,11745.3C25847.5,11745.3 25846.5,11746.3 25846.5,11748L25846.5,11773.8C25846.5,11775.4 25847.5,11776.5 25849.5,11776.5Z" style="fill-rule:nonzero;"/>
                </g>
            </g>
        </g>
    </g>
</svg>
