<?xml version="1.0" encoding="UTF-8" standalone="no"?>
<!DOCTYPE svg PUBLIC "-//W3C//DTD SVG 1.1//EN" "http://www.w3.org/Graphics/SVG/1.1/DTD/svg11.dtd">
<svg width="100%" height="100%" viewBox="0 0 80 79" version="1.1" xmlns="http://www.w3.org/2000/svg" xmlns:xlink="http://www.w3.org/1999/xlink" xml:space="preserve" xmlns:serif="http://www.serif.com/" style="fill-rule:evenodd;clip-rule:evenodd;stroke-linejoin:round;stroke-miterlimit:2;">
    <g transform="matrix(1,0,0,1,-25095,-11623)">
        <g transform="matrix(0.701184,0,0,0.686918,23946,6475.34)">
            <g id="icon-time2" transform="matrix(1.42616,0,0,1.45578,1629.42,7602.69)">
                <path d="M26.709,-30.908L46.191,-30.908C47.9,-30.908 49.219,-32.227 49.219,-33.887L49.219,-59.033C49.219,-60.742 47.9,-62.06 46.191,-62.06C44.531,-62.06 43.213,-60.742 43.213,-59.033L43.213,-36.914L26.709,-36.914C25,-36.914 23.731,-35.596 23.731,-33.887C23.731,-32.227 25,-30.908 26.709,-30.908Z" style="fill-rule:nonzero;"/>
                <path d="M46.24,4.15C67.773,4.15 85.693,-13.721 85.693,-35.254C85.693,-56.787 67.725,-74.658 46.191,-74.658C24.707,-74.658 6.836,-56.787 6.836,-35.254C6.836,-13.721 24.756,4.15 46.24,4.15ZM46.24,-3.271C28.516,-3.271 14.355,-17.481 14.355,-35.254C14.355,-53.027 28.467,-67.236 46.191,-67.236C63.965,-67.236 78.223,-53.027 78.223,-35.254C78.223,-17.481 64.014,-3.271 46.24,-3.271Z" style="fill-rule:nonzero;"/>
            </g>
        </g>
    </g>
</svg>
