<?xml version="1.0" encoding="UTF-8" standalone="no"?>
<!DOCTYPE svg PUBLIC "-//W3C//DTD SVG 1.1//EN" "http://www.w3.org/Graphics/SVG/1.1/DTD/svg11.dtd">
<svg width="100%" height="100%" viewBox="0 0 84 83" version="1.1" xmlns="http://www.w3.org/2000/svg" xmlns:xlink="http://www.w3.org/1999/xlink" xml:space="preserve" xmlns:serif="http://www.serif.com/" style="fill-rule:evenodd;clip-rule:evenodd;stroke-linejoin:round;stroke-miterlimit:2;">
    <g transform="matrix(1,0,0,1,-11566,-7676)">
        <g transform="matrix(0.701184,0,0,0.686918,11414,2529.34)">
            <g id="icon-gear" transform="matrix(1.42616,0,0,1.45578,207.472,7604.38)">
                <path d="M44.287,6.006L52.002,6.006C55.127,6.006 57.568,4.102 58.301,1.172L59.912,-5.859L60.791,-6.152L66.846,-2.393C69.482,-0.781 72.559,-1.172 74.756,-3.418L80.127,-8.74C82.324,-10.938 82.764,-14.063 81.104,-16.602L77.295,-22.705L77.588,-23.438L84.619,-25.049C87.549,-25.781 89.502,-28.272 89.502,-31.348L89.502,-38.867C89.502,-41.943 87.598,-44.434 84.619,-45.166L77.686,-46.875L77.344,-47.656L81.152,-53.76C82.813,-56.348 82.373,-59.375 80.176,-61.67L74.805,-66.992C72.656,-69.19 69.58,-69.58 66.943,-68.018L60.84,-64.307L59.912,-64.648L58.301,-71.68C57.568,-74.609 55.127,-76.514 52.002,-76.514L44.287,-76.514C41.162,-76.514 38.77,-74.609 38.037,-71.68L36.426,-64.648L35.449,-64.307L29.346,-68.018C26.758,-69.58 23.682,-69.19 21.484,-66.992L16.162,-61.67C13.965,-59.375 13.525,-56.348 15.185,-53.76L18.945,-47.656L18.604,-46.875L11.67,-45.166C8.74,-44.434 6.836,-41.943 6.836,-38.867L6.836,-31.348C6.836,-28.272 8.789,-25.781 11.67,-25.049L18.701,-23.438L18.994,-22.705L15.234,-16.602C13.574,-14.063 14.014,-10.938 16.211,-8.74L21.533,-3.418C23.731,-1.172 26.856,-0.781 29.443,-2.393L35.547,-6.152L36.426,-5.859L38.037,1.172C38.77,4.102 41.162,6.006 44.287,6.006ZM44.971,-0.781C44.482,-0.781 44.238,-0.977 44.19,-1.416L41.797,-10.986C39.307,-11.621 37.061,-12.549 35.352,-13.721L26.904,-8.496C26.563,-8.301 26.221,-8.35 25.879,-8.643L21.484,-13.086C21.143,-13.379 21.143,-13.721 21.387,-14.111L26.514,-22.51C25.586,-24.17 24.512,-26.416 23.877,-28.906L14.258,-31.25C13.818,-31.299 13.623,-31.543 13.623,-32.031L13.623,-38.281C13.623,-38.818 13.77,-38.965 14.258,-39.111L23.828,-41.406C24.463,-44.092 25.732,-46.436 26.416,-47.9L21.338,-56.25C21.045,-56.69 21.045,-57.031 21.387,-57.373L25.83,-61.719C26.172,-62.012 26.416,-62.109 26.904,-61.865L35.254,-56.787C36.963,-57.813 39.404,-58.838 41.846,-59.522L44.19,-69.092C44.238,-69.531 44.482,-69.727 44.971,-69.727L51.367,-69.727C51.856,-69.727 52.1,-69.531 52.148,-69.092L54.492,-59.424C57.031,-58.789 59.228,-57.764 60.986,-56.738L69.434,-61.865C69.873,-62.109 70.117,-62.012 70.508,-61.719L74.951,-57.373C75.244,-57.031 75.293,-56.69 75,-56.25L69.873,-47.9C70.606,-46.436 71.826,-44.092 72.461,-41.406L82.08,-39.111C82.568,-38.965 82.666,-38.818 82.666,-38.281L82.666,-32.031C82.666,-31.543 82.519,-31.299 82.08,-31.25L72.412,-28.906C71.826,-26.416 70.752,-24.17 69.775,-22.51L74.951,-14.111C75.195,-13.721 75.195,-13.379 74.854,-13.086L70.459,-8.643C70.068,-8.35 69.727,-8.301 69.434,-8.496L60.938,-13.721C59.277,-12.549 56.982,-11.621 54.492,-10.986L52.148,-1.416C52.1,-0.977 51.856,-0.781 51.367,-0.781L44.971,-0.781ZM48.145,-20.654C56.152,-20.654 62.744,-27.197 62.744,-35.254C62.744,-43.213 56.152,-49.756 48.145,-49.756C40.137,-49.756 33.545,-43.213 33.545,-35.254C33.545,-27.246 40.137,-20.654 48.145,-20.654ZM48.145,-27.393C43.848,-27.393 40.381,-30.908 40.381,-35.254C40.381,-39.502 43.848,-43.018 48.145,-43.018C52.344,-43.018 55.859,-39.502 55.859,-35.254C55.859,-30.957 52.344,-27.393 48.145,-27.393Z" style="fill-rule:nonzero;"/>
            </g>
        </g>
    </g>
</svg>
