<?xml version="1.0" encoding="UTF-8" standalone="no"?>
<!DOCTYPE svg PUBLIC "-//W3C//DTD SVG 1.1//EN" "http://www.w3.org/Graphics/SVG/1.1/DTD/svg11.dtd">
<svg width="100%" height="100%" viewBox="0 0 94 82" version="1.1" xmlns="http://www.w3.org/2000/svg" xmlns:xlink="http://www.w3.org/1999/xlink" xml:space="preserve" xmlns:serif="http://www.serif.com/" style="fill-rule:evenodd;clip-rule:evenodd;stroke-linejoin:round;stroke-miterlimit:2;">
    <g transform="matrix(1,0,0,1,-24459,-11623)">
        <g transform="matrix(0.701184,0,0,0.686918,23946,6475.34)">
            <g id="icon-home" transform="matrix(1.42616,0,0,1.45578,718.153,7610.42)">
                <path d="M22.315,-6.982C22.315,-1.416 25.684,1.855 31.348,1.855L81.445,1.855C87.109,1.855 90.479,-1.416 90.479,-6.982L90.479,-35.791L58.643,-62.451C57.275,-63.672 55.469,-63.623 54.15,-62.451L22.315,-35.791L22.315,-6.982ZM9.766,-40.772C9.766,-38.965 11.182,-37.256 13.574,-37.256C14.795,-37.256 15.82,-37.94 16.699,-38.672L55.127,-70.947C55.957,-71.631 56.934,-71.582 57.666,-70.947L96.094,-38.672C97.022,-37.94 98.047,-37.256 99.268,-37.256C101.318,-37.256 102.979,-38.525 102.979,-40.625C102.979,-41.943 102.588,-42.822 101.66,-43.603L61.328,-77.49C58.301,-80.029 54.541,-80.029 51.514,-77.49L11.133,-43.603C10.205,-42.822 9.766,-41.748 9.766,-40.772ZM66.309,-5.176L46.387,-5.176L46.387,-30.127C46.387,-32.031 47.656,-33.203 49.512,-33.203L63.232,-33.203C65.137,-33.203 66.309,-32.031 66.309,-30.127L66.309,-5.176ZM79.932,-59.277L90.479,-50.391L90.479,-68.164C90.479,-70.019 89.258,-71.191 87.451,-71.191L83.057,-71.191C81.201,-71.191 79.932,-70.019 79.932,-68.164L79.932,-59.277Z" style="fill-rule:nonzero;"/>
            </g>
        </g>
    </g>
</svg>
