<?xml version="1.0" encoding="UTF-8" standalone="no"?>
<!DOCTYPE svg PUBLIC "-//W3C//DTD SVG 1.1//EN" "http://www.w3.org/Graphics/SVG/1.1/DTD/svg11.dtd">
<svg width="100%" height="100%" viewBox="0 0 88 71" version="1.1" xmlns="http://www.w3.org/2000/svg" xmlns:xlink="http://www.w3.org/1999/xlink" xml:space="preserve" xmlns:serif="http://www.serif.com/" style="fill-rule:evenodd;clip-rule:evenodd;stroke-linejoin:round;stroke-miterlimit:2;">
    <g transform="matrix(1,0,0,1,-24474,-11788)">
        <g transform="matrix(0.701184,0,0,0.686918,23946,6475.34)">
            <g id="icon-folder" transform="matrix(1.42616,0,0,1.45578,739.303,7837.41)">
                <path d="M22.217,-0.098L86.279,-0.098C93.213,-0.098 97.315,-4.199 97.315,-12.402L97.315,-51.66C97.315,-59.863 93.164,-63.916 84.863,-63.916L48.291,-63.916C45.898,-63.916 44.336,-64.6 42.481,-66.113L40.039,-68.066C37.5,-70.166 35.4,-70.898 31.69,-70.898L20.752,-70.898C13.867,-70.898 9.766,-66.894 9.766,-58.74L9.766,-12.402C9.766,-4.199 13.916,-0.098 22.217,-0.098ZM22.315,-7.178C18.799,-7.178 16.797,-9.033 16.797,-12.744L16.797,-58.398C16.797,-62.012 18.75,-63.867 22.266,-63.867L29.834,-63.867C32.227,-63.867 33.789,-63.184 35.645,-61.67L38.086,-59.717C40.576,-57.666 42.725,-56.885 46.436,-56.885L84.766,-56.885C88.281,-56.885 90.283,-54.981 90.283,-51.27L90.283,-12.695C90.283,-9.033 88.281,-7.178 84.766,-7.178L22.315,-7.178ZM14.063,-42.969L92.969,-42.969L92.969,-49.561L14.063,-49.561L14.063,-42.969Z" style="fill-rule:nonzero;"/>
            </g>
        </g>
    </g>
</svg>
