<?xml version="1.0" encoding="UTF-8" standalone="no"?>
<!DOCTYPE svg PUBLIC "-//W3C//DTD SVG 1.1//EN" "http://www.w3.org/Graphics/SVG/1.1/DTD/svg11.dtd">
<svg width="100%" height="100%" viewBox="0 0 59 81" version="1.1" xmlns="http://www.w3.org/2000/svg" xmlns:xlink="http://www.w3.org/1999/xlink" xml:space="preserve" xmlns:serif="http://www.serif.com/" style="fill-rule:evenodd;clip-rule:evenodd;stroke-linejoin:round;stroke-miterlimit:2;">
    <g transform="matrix(1,0,0,1,-24851,-11621)">
        <g transform="matrix(0.701184,0,0,0.686918,23946,6475.34)">
            <g id="icon-top" transform="matrix(1.42616,0,0,1.45578,1277.14,7601.39)">
                <path d="M68.359,-38.135C68.359,-39.16 67.969,-40.088 67.139,-40.967L41.992,-66.162C41.162,-67.09 40.137,-67.529 39.063,-67.529C37.988,-67.529 36.963,-67.09 36.133,-66.162L10.986,-40.967C10.156,-40.088 9.766,-39.16 9.766,-38.135C9.766,-35.938 11.377,-34.277 13.574,-34.277C14.6,-34.277 15.625,-34.668 16.309,-35.352L23.291,-42.139L38.135,-58.545L35.596,-59.473L35.107,-47.461L35.107,1.27C35.107,3.564 36.768,5.127 39.063,5.127C41.357,5.127 43.018,3.564 43.018,1.27L43.018,-47.461L42.529,-59.473L40.039,-58.545L54.834,-42.139L61.816,-35.352C62.5,-34.668 63.525,-34.277 64.551,-34.277C66.748,-34.277 68.359,-35.938 68.359,-38.135ZM68.359,-71.484C68.359,-73.779 66.797,-75.391 64.551,-75.391L13.672,-75.391C11.377,-75.391 9.766,-73.779 9.766,-71.484C9.766,-69.19 11.377,-67.529 13.672,-67.529L64.551,-67.529C66.797,-67.529 68.359,-69.19 68.359,-71.484Z" style="fill-rule:nonzero;"/>
            </g>
        </g>
    </g>
</svg>
