<?xml version="1.0" encoding="UTF-8" standalone="no"?>
<!DOCTYPE svg PUBLIC "-//W3C//DTD SVG 1.1//EN" "http://www.w3.org/Graphics/SVG/1.1/DTD/svg11.dtd">
<svg width="100%" height="100%" viewBox="0 0 86 82" version="1.1" xmlns="http://www.w3.org/2000/svg" xmlns:xlink="http://www.w3.org/1999/xlink" xml:space="preserve" xmlns:serif="http://www.serif.com/" style="fill-rule:evenodd;clip-rule:evenodd;stroke-linejoin:round;stroke-miterlimit:2;">
    <g transform="matrix(1,0,0,1,-26097,-11616)">
        <g transform="matrix(0.701184,0,0,0.686918,23946,6475.34)">
            <g id="icon-label3" transform="matrix(1.42616,0,0,1.45578,3054.77,7590.88)">
                <path d="M34.277,7.373C36.426,7.373 37.891,6.25 40.527,3.857L53.613,-7.861L76.563,-7.861C88.574,-7.861 94.873,-14.355 94.873,-26.172L94.873,-54.59C94.873,-66.406 88.574,-72.9 76.563,-72.9L28.076,-72.9C16.064,-72.9 9.766,-66.406 9.766,-54.59L9.766,-26.172C9.766,-14.355 16.064,-7.861 28.076,-7.861L29.492,-7.861L29.492,1.855C29.492,5.225 31.201,7.373 34.277,7.373ZM36.084,-0.635L36.084,-11.621C36.084,-14.014 35.205,-14.893 32.813,-14.893L28.076,-14.893C20.215,-14.893 16.797,-18.652 16.797,-26.172L16.797,-54.59C16.797,-62.06 20.215,-65.82 28.076,-65.82L76.563,-65.82C84.424,-65.82 87.842,-62.06 87.842,-54.59L87.842,-26.172C87.842,-18.652 84.424,-14.893 76.563,-14.893L53.223,-14.893C50.879,-14.893 49.658,-14.551 48.096,-12.891L36.084,-0.635Z" style="fill-rule:nonzero;"/>
                <path d="M46.24,-20.313L60.596,-20.313C62.207,-20.313 63.525,-21.533 63.525,-23.145C63.525,-24.756 62.207,-25.977 60.596,-25.977L56.641,-25.977L56.641,-42.871C56.641,-45.068 55.518,-46.533 53.516,-46.533L46.924,-46.533C45.313,-46.533 43.994,-45.313 43.994,-43.701C43.994,-42.09 45.313,-40.869 46.924,-40.869L50.195,-40.869L50.195,-25.977L46.24,-25.977C44.58,-25.977 43.311,-24.756 43.311,-23.145C43.311,-21.533 44.58,-20.313 46.24,-20.313ZM51.953,-52.051C54.834,-52.051 57.031,-54.346 57.031,-57.129C57.031,-60.01 54.834,-62.256 51.953,-62.256C49.17,-62.256 46.924,-60.01 46.924,-57.129C46.924,-54.346 49.17,-52.051 51.953,-52.051Z" style="fill-rule:nonzero;"/>
            </g>
        </g>
    </g>
</svg>
