<?xml version="1.0" encoding="UTF-8" standalone="no"?>
<!DOCTYPE svg PUBLIC "-//W3C//DTD SVG 1.1//EN" "http://www.w3.org/Graphics/SVG/1.1/DTD/svg11.dtd">
<svg width="100%" height="100%" viewBox="0 0 82 81" version="1.1" xmlns="http://www.w3.org/2000/svg" xmlns:xlink="http://www.w3.org/1999/xlink" xml:space="preserve" xmlns:serif="http://www.serif.com/" style="fill-rule:evenodd;clip-rule:evenodd;stroke-linejoin:round;stroke-miterlimit:2;">
    <g transform="matrix(1,0,0,1,-11454,-7678)">
        <g transform="matrix(0.701184,0,0,0.686918,11414,2529.34)">
            <g id="icon-gear-fill" transform="matrix(1.42616,0,0,1.45578,48.3999,7605.94)">
                <path d="M43.555,4.932L50.44,4.932C52.393,4.932 53.857,3.76 54.297,1.855L56.299,-6.689C57.91,-7.227 59.424,-7.813 60.791,-8.496L68.262,-3.906C69.824,-2.93 71.729,-3.076 73.047,-4.395L77.881,-9.229C79.199,-10.547 79.394,-12.549 78.32,-14.16L73.779,-21.582C74.463,-22.949 75.098,-24.463 75.537,-25.879L84.18,-27.93C86.035,-28.32 87.158,-29.785 87.158,-31.787L87.158,-38.525C87.158,-40.43 86.035,-41.895 84.18,-42.285L75.635,-44.385C75.098,-46.045 74.414,-47.51 73.877,-48.731L78.418,-56.299C79.443,-57.91 79.346,-59.766 77.979,-61.133L73.047,-65.967C71.68,-67.188 70.019,-67.432 68.408,-66.553L60.791,-61.865C59.473,-62.549 57.959,-63.135 56.299,-63.672L54.297,-72.363C53.857,-74.268 52.393,-75.44 50.44,-75.44L43.555,-75.44C41.602,-75.44 40.137,-74.268 39.746,-72.363L37.695,-63.77C36.133,-63.232 34.522,-62.647 33.203,-61.914L25.635,-66.553C23.975,-67.432 22.315,-67.236 20.947,-65.967L16.016,-61.133C14.648,-59.766 14.551,-57.91 15.576,-56.299L20.117,-48.731C19.58,-47.51 18.897,-46.045 18.408,-44.385L9.863,-42.285C7.959,-41.895 6.836,-40.43 6.836,-38.525L6.836,-31.787C6.836,-29.785 7.959,-28.32 9.863,-27.93L18.506,-25.879C18.897,-24.463 19.531,-22.949 20.215,-21.582L15.674,-14.16C14.6,-12.549 14.795,-10.547 16.113,-9.229L20.947,-4.395C22.266,-3.076 24.17,-2.93 25.781,-3.906L33.252,-8.496C34.57,-7.813 36.133,-7.227 37.695,-6.689L39.746,1.855C40.137,3.76 41.602,4.932 43.555,4.932ZM47.022,-21.826C39.6,-21.826 33.594,-27.93 33.594,-35.303C33.594,-42.627 39.6,-48.682 47.022,-48.682C54.395,-48.682 60.4,-42.627 60.4,-35.303C60.4,-27.93 54.395,-21.826 47.022,-21.826Z" style="fill-rule:nonzero;"/>
            </g>
        </g>
    </g>
</svg>
