<?xml version="1.0" encoding="UTF-8" standalone="no"?>
<!DOCTYPE svg PUBLIC "-//W3C//DTD SVG 1.1//EN" "http://www.w3.org/Graphics/SVG/1.1/DTD/svg11.dtd">
<svg width="100%" height="100%" viewBox="0 0 75 87" version="1.1" xmlns="http://www.w3.org/2000/svg" xmlns:xlink="http://www.w3.org/1999/xlink" xml:space="preserve" xmlns:serif="http://www.serif.com/" style="fill-rule:evenodd;clip-rule:evenodd;stroke-linejoin:round;stroke-miterlimit:2;">
    <g transform="matrix(1,0,0,1,-25323,-11617)">
        <g transform="matrix(0.701184,0,0,0.686918,23946,6475.34)">
            <g id="icon-label" transform="matrix(1.42616,0,0,1.45578,1954.98,7600.24)">
                <path d="M43.799,7.617C67.676,7.617 80.762,-0.83 80.762,-9.277C80.762,-19.971 64.307,-26.416 53.955,-26.563L53.955,-20.166C60.742,-20.068 71.777,-16.064 71.777,-10.4C71.777,-3.955 60.01,0.635 43.799,0.635C27.49,0.635 15.82,-3.906 15.82,-10.4C15.82,-16.064 26.856,-20.068 33.643,-20.166L33.643,-26.563C23.291,-26.416 6.836,-19.971 6.836,-9.277C6.836,-0.83 19.922,7.617 43.799,7.617Z" style="fill-rule:nonzero;"/>
                <g transform="matrix(1,0,0,1,-25316.8,-11696.1)">
                    <path d="M25345.4,11633C25345.4,11624.5 25352.1,11617.6 25360.6,11617.6C25369.1,11617.6 25375.9,11624.5 25375.9,11633C25375.9,11640 25371.2,11645.9 25364.7,11647.7L25364.7,11669.1C25364.7,11682 25362.4,11689.1 25360.6,11689.1C25358.8,11689.1 25356.5,11682 25356.5,11669.1L25356.5,11647.7C25350,11645.9 25345.4,11640 25345.4,11633ZM25356.3,11633.9C25359.2,11633.9 25361.6,11631.4 25361.6,11628.6C25361.6,11625.8 25359.2,11623.4 25356.3,11623.4C25353.6,11623.4 25351.1,11625.8 25351.1,11628.6C25351.1,11631.4 25353.6,11633.9 25356.3,11633.9Z" style="fill-rule:nonzero;"/>
                </g>
            </g>
        </g>
    </g>
</svg>
