<?xml version="1.0" encoding="UTF-8" standalone="no"?>
<!DOCTYPE svg PUBLIC "-//W3C//DTD SVG 1.1//EN" "http://www.w3.org/Graphics/SVG/1.1/DTD/svg11.dtd">
<svg width="100%" height="100%" viewBox="0 0 271 268" version="1.1" xmlns="http://www.w3.org/2000/svg" xmlns:xlink="http://www.w3.org/1999/xlink" xml:space="preserve" xmlns:serif="http://www.serif.com/" style="fill-rule:evenodd;clip-rule:evenodd;stroke-linejoin:round;stroke-miterlimit:2;">
    <g transform="matrix(1,0,0,1,-9239,-6448)">
        <g transform="matrix(1.30552,0,0,1.07514,7634.48,-4087.76)">
            <g transform="matrix(1,0,0,1,530.057,1557.47)">
                <g>
                    <g transform="matrix(0.765978,0,0,0.930112,-4415.37,7423)">
                        <circle cx="6889" cy="987" r="4" style="fill:rgb(51,51,51);"/>
                    </g>
                    <g transform="matrix(1.14897,0,0,1.39517,-7059.14,6944.46)">
                        <circle cx="6889" cy="987" r="4" style="fill:rgb(51,51,51);"/>
                    </g>
                    <g transform="matrix(2.01069,0,0,2.44154,-13009,5886.11)">
                        <circle cx="6889" cy="987" r="4" style="fill:rgb(51,51,51);"/>
                    </g>
                    <g transform="matrix(2.87242,0,0,3.48792,-18971,4830.55)">
                        <circle cx="6889" cy="987" r="4" style="fill:rgb(51,51,51);"/>
                    </g>
                    <g transform="matrix(-0.765978,0,0,0.930112,5978.95,7423)">
                        <circle cx="6889" cy="987" r="4" style="fill:rgb(51,51,51);"/>
                    </g>
                    <g transform="matrix(-1.14897,0,0,1.39517,8622.73,6944.46)">
                        <circle cx="6889" cy="987" r="4" style="fill:rgb(51,51,51);"/>
                    </g>
                    <g transform="matrix(-2.01069,0,0,2.44154,14572.6,5886.11)">
                        <circle cx="6889" cy="987" r="4" style="fill:rgb(51,51,51);"/>
                    </g>
                    <g transform="matrix(-2.87242,0,0,3.48792,20535.4,4830.55)">
                        <circle cx="6889" cy="987" r="4" style="fill:rgb(51,51,51);"/>
                    </g>
                    <g transform="matrix(3.54265,0,0,4.30177,-23623.1,4017.51)">
                        <circle cx="6889" cy="987" r="4" style="fill:rgb(51,51,51);"/>
                    </g>
                </g>
                <g transform="matrix(6.12323e-17,-1.21428,0.823533,6.12323e-17,-6088.46,9339.63)">
                    <g transform="matrix(0.765978,0,0,0.930112,-4415.37,7423)">
                        <circle cx="6889" cy="987" r="4" style="fill:rgb(51,51,51);"/>
                    </g>
                    <g transform="matrix(1.14897,0,0,1.39517,-7059.14,6944.46)">
                        <circle cx="6889" cy="987" r="4" style="fill:rgb(51,51,51);"/>
                    </g>
                    <g transform="matrix(2.01069,0,0,2.44154,-13009,5886.11)">
                        <circle cx="6889" cy="987" r="4" style="fill:rgb(51,51,51);"/>
                    </g>
                    <g transform="matrix(2.87242,0,0,3.48792,-18971,4830.55)">
                        <circle cx="6889" cy="987" r="4" style="fill:rgb(51,51,51);"/>
                    </g>
                    <g transform="matrix(-0.765978,0,0,0.930112,5978.95,7423)">
                        <circle cx="6889" cy="987" r="4" style="fill:rgb(51,51,51);"/>
                    </g>
                    <g transform="matrix(-1.14897,0,0,1.39517,8622.73,6944.46)">
                        <circle cx="6889" cy="987" r="4" style="fill:rgb(51,51,51);"/>
                    </g>
                    <g transform="matrix(-2.01069,0,0,2.44154,14572.6,5886.11)">
                        <circle cx="6889" cy="987" r="4" style="fill:rgb(51,51,51);"/>
                    </g>
                    <g transform="matrix(-2.87242,0,0,3.48792,20535.4,4830.55)">
                        <circle cx="6889" cy="987" r="4" style="fill:rgb(51,51,51);"/>
                    </g>
                    <g transform="matrix(3.54265,0,0,4.30177,-23623.1,4017.51)">
                        <circle cx="6889" cy="987" r="4" style="fill:rgb(51,51,51);"/>
                    </g>
                </g>
                <g transform="matrix(-1,1.48706e-16,-1.00854e-16,-1,1604.95,16732.3)">
                    <g transform="matrix(0.765978,0,0,0.930112,-4415.37,7423)">
                        <circle cx="6889" cy="987" r="4" style="fill:rgb(51,51,51);"/>
                    </g>
                    <g transform="matrix(1.14897,0,0,1.39517,-7059.14,6944.46)">
                        <circle cx="6889" cy="987" r="4" style="fill:rgb(51,51,51);"/>
                    </g>
                    <g transform="matrix(2.01069,0,0,2.44154,-13009,5886.11)">
                        <circle cx="6889" cy="987" r="4" style="fill:rgb(51,51,51);"/>
                    </g>
                    <g transform="matrix(2.87242,0,0,3.48792,-18971,4830.55)">
                        <circle cx="6889" cy="987" r="4" style="fill:rgb(51,51,51);"/>
                    </g>
                    <g transform="matrix(-0.765978,0,0,0.930112,5978.95,7423)">
                        <circle cx="6889" cy="987" r="4" style="fill:rgb(51,51,51);"/>
                    </g>
                    <g transform="matrix(-1.14897,0,0,1.39517,8622.73,6944.46)">
                        <circle cx="6889" cy="987" r="4" style="fill:rgb(51,51,51);"/>
                    </g>
                    <g transform="matrix(-2.01069,0,0,2.44154,14572.6,5886.11)">
                        <circle cx="6889" cy="987" r="4" style="fill:rgb(51,51,51);"/>
                    </g>
                    <g transform="matrix(-2.87242,0,0,3.48792,20535.4,4830.55)">
                        <circle cx="6889" cy="987" r="4" style="fill:rgb(51,51,51);"/>
                    </g>
                    <g transform="matrix(3.54265,0,0,4.30177,-23623.1,4017.51)">
                        <circle cx="6889" cy="987" r="4" style="fill:rgb(51,51,51);"/>
                    </g>
                </g>
                <g transform="matrix(6.12323e-17,1.21428,-0.823533,6.12323e-17,7693.03,7393.56)">
                    <g transform="matrix(0.765978,0,0,0.930112,-4415.37,7423)">
                        <circle cx="6889" cy="987" r="4" style="fill:rgb(51,51,51);"/>
                    </g>
                    <g transform="matrix(1.14897,0,0,1.39517,-7059.14,6944.46)">
                        <circle cx="6889" cy="987" r="4" style="fill:rgb(51,51,51);"/>
                    </g>
                    <g transform="matrix(2.01069,0,0,2.44154,-13009,5886.11)">
                        <circle cx="6889" cy="987" r="4" style="fill:rgb(51,51,51);"/>
                    </g>
                    <g transform="matrix(2.87242,0,0,3.48792,-18971,4830.55)">
                        <circle cx="6889" cy="987" r="4" style="fill:rgb(51,51,51);"/>
                    </g>
                    <g transform="matrix(-0.765978,0,0,0.930112,5978.95,7423)">
                        <circle cx="6889" cy="987" r="4" style="fill:rgb(51,51,51);"/>
                    </g>
                    <g transform="matrix(-1.14897,0,0,1.39517,8622.73,6944.46)">
                        <circle cx="6889" cy="987" r="4" style="fill:rgb(51,51,51);"/>
                    </g>
                    <g transform="matrix(-2.01069,0,0,2.44154,14572.6,5886.11)">
                        <circle cx="6889" cy="987" r="4" style="fill:rgb(51,51,51);"/>
                    </g>
                    <g transform="matrix(-2.87242,0,0,3.48792,20535.4,4830.55)">
                        <circle cx="6889" cy="987" r="4" style="fill:rgb(51,51,51);"/>
                    </g>
                    <g transform="matrix(3.54265,0,0,4.30177,-23623.1,4017.51)">
                        <circle cx="6889" cy="987" r="4" style="fill:rgb(51,51,51);"/>
                    </g>
                </g>
            </g>
        </g>
    </g>
</svg>
